<?xml version="1.0" encoding="UTF-8" standalone="no"?>
<svg
   version="1.1"
   x="0px"
   y="0px"
   viewBox="0 0 64 64"
   enable-background="new 0 0 100 100"
   xml:space="preserve"
   id="svg4"
   sodipodi:docname="puzzleteams_icon_plain.svg"
   width="64"
   height="64"
   inkscape:version="1.3.2 (091e20e, 2023-11-25)"
   xmlns:inkscape="http://www.inkscape.org/namespaces/inkscape"
   xmlns:sodipodi="http://sodipodi.sourceforge.net/DTD/sodipodi-0.dtd"
   xmlns="http://www.w3.org/2000/svg"
   xmlns:svg="http://www.w3.org/2000/svg"><defs
     id="defs4" /><sodipodi:namedview
     id="namedview4"
     pagecolor="#ffffff"
     bordercolor="#000000"
     borderopacity="0.25"
     inkscape:showpageshadow="2"
     inkscape:pageopacity="0.0"
     inkscape:pagecheckerboard="0"
     inkscape:deskcolor="#d1d1d1"
     showguides="false"
     inkscape:zoom="4"
     inkscape:cx="35.375"
     inkscape:cy="40"
     inkscape:window-width="1640"
     inkscape:window-height="963"
     inkscape:window-x="135"
     inkscape:window-y="170"
     inkscape:window-maximized="0"
     inkscape:current-layer="svg4" /><rect
     style="fill:#ffba00;fill-opacity:1"
     id="rect4"
     width="64.115623"
     height="63.998291"
     x="-0.11391357"
     y="0.0017050557" /><ellipse
     fill="#000000"
     cx="23.549528"
     cy="32.890331"
     rx="3.5"
     ry="4.5"
     id="ellipse1"
     style="fill:#009900;fill-opacity:1;stroke-width:1.72836" /><ellipse
     fill="#000000"
     cx="43.393833"
     cy="32.890324"
     rx="3.5"
     ry="4.5"
     id="ellipse2"
     style="fill:#009900;fill-opacity:1;stroke-width:1.72835" /><path
     fill="#000000"
     d="m 39.72025,42.945521 c -0.641242,0 -1.161166,0.405258 -1.161166,0.907236 0,2.501187 -2.6021,4.534247 -5.803352,4.534247 -3.201254,0 -5.803354,-2.03306 -5.803354,-4.534247 0,-0.501978 -0.518687,-0.907236 -1.161165,-0.907236 -0.642481,0 -1.161168,0.405258 -1.161168,0.907236 0,3.49934 3.644428,6.346785 8.12321,6.346785 4.478783,0 8.123209,-2.847445 8.123209,-6.346785 0.005,-0.501978 -0.514973,-0.907236 -1.156214,-0.907236 z"
     id="path2"
     style="fill:#009900;fill-opacity:1"
     stroke-width="2.24363"
     stroke="#009900" /><path
     fill="#000000"
     d="m 55.786675,22.524876 c -1.558821,0 -2.443684,1.029545 -3.154907,1.856964 -0.805575,0.938528 -1.205984,1.407793 -2.459543,0.475175 -0.296539,-0.22104 -1.075949,-1.612286 -1.075949,-3.44088 V 8.1183342 c 0,-0.6134718 -0.332222,-1.1087407 -0.74373,-1.1087407 -0.0024,0 -0.004,0.00235 -0.0071,0.00235 l -8.912904,-0.00235 c -0.004,0 -0.0071,0.00469 -0.01191,0.00469 -1.829195,0.00591 -3.244503,1.6879335 -3.626675,2.8262258 -1.045028,3.1158217 -0.2006,4.7281077 0.47732,6.0224267 0.478905,0.912524 0.930851,1.776584 0.930851,3.339225 0,3.677284 -1.750699,5.54134 -5.202939,5.54134 -3.452239,0 -5.202937,-1.862874 -5.202937,-5.54134 0,-1.562641 0.451154,-2.426701 0.93085,-3.339225 0.677921,-1.294319 1.522348,-2.906605 0.47732,-6.0224267 -0.601009,-1.791953 -1.921964,-2.8203159 -3.623504,-2.8262258 -0.004,0 -0.0088,-0.00469 -0.01427,-0.00469 h -8.919987 c -0.410716,0 -0.743729,0.4952689 -0.743729,1.1087407 v 0 c 0,0.00235 0,0.00235 0,0.00235 V 21.416115 c 0,1.828594 -0.77941,3.221021 -1.075951,3.440879 -1.252766,0.931436 -1.65476,0.462172 -2.459543,-0.475175 -0.711223,-0.827418 -1.5960865,-1.856963 -3.1549064,-1.856963 -3.3071417,0 -5.2029391,3.635912 -5.2029391,9.97394 0,6.338027 1.8957974,9.97394 5.2029391,9.97394 1.5588199,0 2.4436834,-1.029545 3.1549054,-1.856964 0.805576,-0.934982 1.20757,-1.407792 2.459543,-0.475173 0.683471,0.508271 1.075951,1.763584 1.075951,3.443243 v 13.297824 c 0,0.612289 0.33222,1.108741 0.743729,1.108741 h 32.706678 c 0.410715,0 0.74373,-0.496452 0.74373,-1.108741 V 43.583862 c 0,-1.67966 0.392479,-2.934972 1.07595,-3.443243 1.251179,-0.934983 1.653174,-0.462173 2.459542,0.475174 0.711222,0.827418 1.596086,1.856964 3.154906,1.856964 3.307141,0 5.20294,-3.635913 5.20294,-9.973941 0,-6.338027 -1.895799,-9.97394 -5.203732,-9.97394 z m 0,17.7304 c -1.048202,0 -1.627802,-0.672574 -2.239911,-1.387699 -0.866629,-1.011815 -1.951302,-2.268311 -4.038979,-0.712763 -1.205985,0.89834 -1.897384,2.877052 -1.897384,5.426684 V 55.770557 H 16.390392 V 43.58268 c 0,-2.54963 -0.6914,-4.528344 -1.897385,-5.426684 -2.08609,-1.555547 -3.170764,-0.300234 -4.038977,0.712763 -0.6121097,0.713943 -1.1917114,1.387698 -2.2399114,1.387698 -2.4666778,0 -3.7170646,-2.609914 -3.7170646,-7.756459 0,-5.146545 1.2503868,-7.756459 3.7170646,-7.756459 1.0482,0 1.6262157,0.674938 2.2399114,1.387699 0.866627,1.010633 1.94575,2.26831 4.038977,0.712763 0.765139,-0.570919 1.895799,-2.685565 1.897385,-5.419593 v -0.0023 -12.1949698 h 8.169136 c 0.0032,0 0.0048,0.00235 0.0071,0.00235 1.12511,0 1.967157,0.5839214 2.308893,1.6028298 0.624003,1.864056 0.309227,2.465707 -0.319534,3.667829 -0.554229,1.059096 -1.245628,2.378237 -1.245628,4.703284 0,4.930232 2.438926,7.756459 6.690399,7.756459 4.25147,0 6.690396,-2.827408 6.690396,-7.756459 0,-2.325047 -0.691398,-3.643007 -1.245629,-4.703284 -0.62876,-1.202122 -0.943536,-1.802592 -0.319533,-3.667829 0.14827,-0.440897 1.081501,-1.6028298 2.308893,-1.6028298 0.0024,0 0.004,-0.00235 0.0071,-0.00235 l 8.169136,0.00235 v 12.1890598 0.0023 c 0.0015,2.732844 1.132247,4.848673 1.897384,5.419591 2.092436,1.555548 3.170765,0.299054 4.038979,-0.712761 0.613695,-0.712762 1.191711,-1.3877 2.23991,-1.3877 2.466678,0 3.717066,2.609915 3.717066,7.756458 0,5.146545 -1.25118,7.758825 -3.717857,7.758825 z"
     id="path3"
     style="fill-opacity:1;fill:#009900"
     stroke-width="2.01919"
     stroke="#009900" /></svg>
